<svg xmlns="http://www.w3.org/2000/svg" viewBox="0 0 960 1108" font-family="Inter, ui-sans-serif, system-ui, sans-serif">
  <defs>
    <marker id="arr" viewBox="0 0 10 10" refX="9" refY="5" markerWidth="8" markerHeight="6" orient="auto"><path d="M0,0 L10,5 L0,10 Z" fill="#94a3b8"/></marker>
    <marker id="arr-g" viewBox="0 0 10 10" refX="9" refY="5" markerWidth="8" markerHeight="6" orient="auto"><path d="M0,0 L10,5 L0,10 Z" fill="#10b981"/></marker>
    <marker id="arr-b" viewBox="0 0 10 10" refX="9" refY="5" markerWidth="8" markerHeight="6" orient="auto"><path d="M0,0 L10,5 L0,10 Z" fill="#6366f1"/></marker>
    <marker id="arr-y" viewBox="0 0 10 10" refX="9" refY="5" markerWidth="8" markerHeight="6" orient="auto"><path d="M0,0 L10,5 L0,10 Z" fill="#f59e0b"/></marker>
    <marker id="arr-s" viewBox="0 0 10 10" refX="9" refY="5" markerWidth="8" markerHeight="6" orient="auto"><path d="M0,0 L10,5 L0,10 Z" fill="#0ea5e9"/></marker>
  </defs>
  <text x="480" y="34" text-anchor="middle" font-size="17" font-weight="700" fill="#0f172a">How Dispatch Works</text>
  <text x="480" y="52" text-anchor="middle" font-size="11" fill="#64748b">router-first · RAG pipeline · intent classification · fan-out execution</text>
  <rect x="360" y="70" width="240" height="62" rx="10" fill="#f8fafc" stroke="#e2e8f0" stroke-width="1.5"/>
  <text x="480" y="94" text-anchor="middle" font-size="12" font-weight="700" fill="#0f172a">Operator Input</text>
  <text x="480" y="113" text-anchor="middle" font-size="10" fill="#64748b">raw natural language · chat interface</text>
  <line x1="480" y1="132" x2="480" y2="155" stroke="#94a3b8" stroke-width="1.5" marker-end="url(#arr)"/>
  <rect x="360" y="158" width="240" height="62" rx="10" fill="#f0f9ff" stroke="#0ea5e9" stroke-width="1.5"/>
  <text x="480" y="182" text-anchor="middle" font-size="12" font-weight="700" fill="#075985" font-family="ui-monospace,monospace">Pre-classifier Router</text>
  <text x="480" y="201" text-anchor="middle" font-size="10" fill="#0369a1">claude-haiku-4-5 · lane: read | write | clarify</text>
  <line x1="480" y1="220" x2="480" y2="243" stroke="#94a3b8" stroke-width="1.5" marker-end="url(#arr)"/>
  <path d="M360 189 L80 189 L80 541 L358 541" stroke="#0ea5e9" stroke-width="1.5" stroke-dasharray="5,3" fill="none" marker-end="url(#arr-s)"/>
  <text x="75" y="365" text-anchor="middle" font-size="10" font-weight="700" fill="#0369a1" transform="rotate(-90 75 365)">skip on confident write · no KB</text>
  <rect x="360" y="246" width="240" height="62" rx="10" fill="#f8fafc" stroke="#e2e8f0" stroke-width="1.5"/>
  <text x="480" y="270" text-anchor="middle" font-size="12" font-weight="700" fill="#0f172a">Embed Query</text>
  <text x="480" y="289" text-anchor="middle" font-size="10" fill="#64748b">text-embedding-3-small · 1,536-dim vector</text>
  <line x1="480" y1="308" x2="480" y2="331" stroke="#94a3b8" stroke-width="1.5" marker-end="url(#arr)"/>
  <rect x="360" y="334" width="240" height="62" rx="10" fill="#f8fafc" stroke="#e2e8f0" stroke-width="1.5"/>
  <text x="480" y="358" text-anchor="middle" font-size="12" font-weight="700" fill="#0f172a">ANN Vector Search</text>
  <text x="480" y="377" text-anchor="middle" font-size="10" fill="#64748b">cosine similarity · top-4 candidates</text>
  <line x1="480" y1="396" x2="480" y2="419" stroke="#94a3b8" stroke-width="1.5" marker-end="url(#arr)"/>
  <rect x="360" y="422" width="240" height="62" rx="10" fill="#f8fafc" stroke="#e2e8f0" stroke-width="1.5"/>
  <text x="480" y="446" text-anchor="middle" font-size="12" font-weight="700" fill="#0f172a">Trim &amp; Inject</text>
  <text x="480" y="465" text-anchor="middle" font-size="10" fill="#64748b">200-char snippets → system prompt KB block</text>
  <line x1="480" y1="484" x2="480" y2="507" stroke="#94a3b8" stroke-width="1.5" marker-end="url(#arr)"/>
  <rect x="360" y="510" width="240" height="62" rx="10" fill="#ede9fe" stroke="#7c3aed" stroke-width="1.5"/>
  <text x="480" y="534" text-anchor="middle" font-size="12" font-weight="700" fill="#5b21b6" font-family="ui-monospace,monospace">LLM — gpt-5.4-mini</text>
  <text x="480" y="553" text-anchor="middle" font-size="10" fill="#6d28d9">temperature 0 · JSON only · via OpenRouter</text>
  <line x1="480" y1="572" x2="480" y2="595" stroke="#94a3b8" stroke-width="1.5" marker-end="url(#arr)"/>
  <rect x="360" y="598" width="240" height="62" rx="10" fill="#f8fafc" stroke="#e2e8f0" stroke-width="1.5"/>
  <text x="480" y="622" text-anchor="middle" font-size="12" font-weight="700" fill="#0f172a">Parse &amp; Validate</text>
  <text x="480" y="641" text-anchor="middle" font-size="10" fill="#64748b">strip fences · JSON.parse · Zod schema</text>
  <rect x="630" y="334" width="190" height="62" rx="10" fill="#fffbeb" stroke="#fcd34d" stroke-width="1.5"/>
  <text x="725" y="358" text-anchor="middle" font-size="12" font-weight="700" fill="#92400e">KB Articles</text>
  <text x="725" y="377" text-anchor="middle" font-size="10" fill="#b45309">115 help-centre articles · Convex</text>
  <line x1="603" y1="365" x2="627" y2="365" stroke="#f59e0b" stroke-width="1.5" stroke-dasharray="4,2" marker-end="url(#arr-y)"/>
  <line x1="480" y1="660" x2="480" y2="686" stroke="#94a3b8" stroke-width="1.5"/>
  <rect x="374" y="670" width="212" height="20" rx="4" fill="#f1f5f9"/>
  <text x="480" y="684" text-anchor="middle" font-size="10" font-weight="700" fill="#64748b" font-family="ui-monospace,monospace">discriminated union on type</text>
  <line x1="480" y1="702" x2="200" y2="702" stroke="#10b981" stroke-width="1.5"/>
  <line x1="480" y1="702" x2="760" y2="702" stroke="#6366f1" stroke-width="1.5"/>
  <line x1="200" y1="702" x2="200" y2="714" stroke="#10b981" stroke-width="1.5" marker-end="url(#arr-g)"/>
  <line x1="760" y1="702" x2="760" y2="714" stroke="#6366f1" stroke-width="1.5" marker-end="url(#arr-b)"/>
  <rect x="95" y="714" width="210" height="52" rx="10" fill="#d1fae5" stroke="#6ee7b7" stroke-width="1.5"/>
  <text x="200" y="736" text-anchor="middle" font-size="12" font-weight="700" fill="#065f46" font-family="ui-monospace,monospace">"question"</text>
  <text x="200" y="754" text-anchor="middle" font-size="10" fill="#047857">Q&amp;A · no job created</text>
  <rect x="655" y="714" width="210" height="52" rx="10" fill="#e0e7ff" stroke="#a5b4fc" stroke-width="1.5"/>
  <text x="760" y="736" text-anchor="middle" font-size="12" font-weight="700" fill="#3730a3" font-family="ui-monospace,monospace">"bulk_op"</text>
  <text x="760" y="754" text-anchor="middle" font-size="10" fill="#4338ca">card operations · fan-out</text>
  <line x1="200" y1="766" x2="200" y2="781" stroke="#10b981" stroke-width="1.5" marker-end="url(#arr-g)"/>
  <rect x="95" y="784" width="210" height="50" rx="10" fill="#f0fdf4" stroke="#86efac" stroke-width="1.5"/>
  <text x="200" y="804" text-anchor="middle" font-size="11" font-weight="700" fill="#166534">Rerank</text>
  <text x="200" y="820" text-anchor="middle" font-size="10" fill="#15803d">LLM cites only articles it used</text>
  <line x1="200" y1="834" x2="200" y2="849" stroke="#10b981" stroke-width="1.5" marker-end="url(#arr-g)"/>
  <rect x="95" y="852" width="210" height="50" rx="10" fill="#f0fdf4" stroke="#86efac" stroke-width="1.5"/>
  <text x="200" y="872" text-anchor="middle" font-size="11" font-weight="700" fill="#166534">Map Citations</text>
  <text x="200" y="888" text-anchor="middle" font-size="10" fill="#15803d">article IDs → inline source cards</text>
  <line x1="200" y1="902" x2="200" y2="917" stroke="#10b981" stroke-width="1.5" marker-end="url(#arr-g)"/>
  <rect x="95" y="920" width="210" height="50" rx="10" fill="#f0fdf4" stroke="#86efac" stroke-width="1.5"/>
  <text x="200" y="940" text-anchor="middle" font-size="11" font-weight="700" fill="#166534">Render Inline</text>
  <text x="200" y="956" text-anchor="middle" font-size="10" fill="#15803d">answer + sources in chat thread</text>
  <line x1="200" y1="970" x2="200" y2="985" stroke="#10b981" stroke-width="1.5" marker-end="url(#arr-g)"/>
  <rect x="95" y="988" width="210" height="50" rx="10" fill="#f0fdf4" stroke="#86efac" stroke-width="1.5"/>
  <text x="200" y="1008" text-anchor="middle" font-size="11" font-weight="700" fill="#166534">Capture Feedback</text>
  <text x="200" y="1024" text-anchor="middle" font-size="10" fill="#15803d">thumbs up/down · keyed by response ID</text>
  <line x1="760" y1="766" x2="760" y2="781" stroke="#6366f1" stroke-width="1.5" marker-end="url(#arr-b)"/>
  <rect x="655" y="784" width="210" height="50" rx="10" fill="#eef2ff" stroke="#a5b4fc" stroke-width="1.5"/>
  <text x="760" y="804" text-anchor="middle" font-size="11" font-weight="700" fill="#3730a3">Policy Checks</text>
  <text x="760" y="820" text-anchor="middle" font-size="10" fill="#4338ca">SGD 5k cap · 200 card limit · &gt;25 flag</text>
  <line x1="760" y1="834" x2="760" y2="849" stroke="#6366f1" stroke-width="1.5" marker-end="url(#arr-b)"/>
  <rect x="655" y="852" width="210" height="50" rx="10" fill="#eef2ff" stroke="#a5b4fc" stroke-width="1.5"/>
  <text x="760" y="872" text-anchor="middle" font-size="11" font-weight="700" fill="#3730a3">Idempotency Check</text>
  <text x="760" y="888" text-anchor="middle" font-size="10" fill="#4338ca">key: actor + op + group + limit</text>
  <line x1="760" y1="902" x2="760" y2="917" stroke="#6366f1" stroke-width="1.5" marker-end="url(#arr-b)"/>
  <rect x="655" y="920" width="210" height="50" rx="10" fill="#eef2ff" stroke="#a5b4fc" stroke-width="1.5"/>
  <text x="760" y="940" text-anchor="middle" font-size="11" font-weight="700" fill="#3730a3">Create Draft</text>
  <text x="760" y="956" text-anchor="middle" font-size="10" fill="#4338ca">job record · status: draft · no cards touched</text>
  <line x1="760" y1="970" x2="760" y2="985" stroke="#6366f1" stroke-width="1.5" marker-end="url(#arr-b)"/>
  <rect x="655" y="988" width="210" height="50" rx="10" fill="#eef2ff" stroke="#a5b4fc" stroke-width="1.5"/>
  <text x="760" y="1008" text-anchor="middle" font-size="11" font-weight="700" fill="#3730a3">Confirm → Fan-out</text>
  <text x="760" y="1024" text-anchor="middle" font-size="10" fill="#4338ca">500–3,500ms stagger · one item per card</text>
  <rect x="240" y="1062" width="480" height="34" rx="6" fill="#f8fafc" stroke="#e2e8f0" stroke-width="1"/>
  <line x1="255" y1="1079" x2="270" y2="1079" stroke="#94a3b8" stroke-width="1.5"/>
  <text x="274" y="1083" font-size="10" fill="#64748b">pipeline</text>
  <line x1="325" y1="1079" x2="340" y2="1079" stroke="#0ea5e9" stroke-width="1.5" stroke-dasharray="5,3"/>
  <text x="344" y="1083" font-size="10" fill="#64748b">router skip</text>
  <line x1="410" y1="1079" x2="425" y2="1079" stroke="#f59e0b" stroke-width="1.5" stroke-dasharray="4,2"/>
  <text x="429" y="1083" font-size="10" fill="#64748b">KB lookup</text>
  <line x1="488" y1="1079" x2="503" y2="1079" stroke="#10b981" stroke-width="1.5"/>
  <text x="507" y="1083" font-size="10" fill="#64748b">question</text>
  <line x1="560" y1="1079" x2="575" y2="1079" stroke="#6366f1" stroke-width="1.5"/>
  <text x="579" y="1083" font-size="10" fill="#64748b">bulk_op</text>
</svg>
