<svg xmlns="http://www.w3.org/2000/svg" viewBox="0 0 1100 500" font-family="Inter, ui-sans-serif, system-ui, sans-serif">
  <defs>
    <marker id="arr" viewBox="0 0 10 10" refX="9" refY="5" markerWidth="8" markerHeight="6" orient="auto"><path d="M0,0 L10,5 L0,10 Z" fill="#94a3b8"/></marker>
    <marker id="arr-p" viewBox="0 0 10 10" refX="9" refY="5" markerWidth="8" markerHeight="6" orient="auto"><path d="M0,0 L10,5 L0,10 Z" fill="#6366f1"/></marker>
    <marker id="arr-g" viewBox="0 0 10 10" refX="9" refY="5" markerWidth="8" markerHeight="6" orient="auto"><path d="M0,0 L10,5 L0,10 Z" fill="#10b981"/></marker>
  </defs>
  <text x="550" y="30" text-anchor="middle" font-size="16" font-weight="700" fill="#0f172a">KB Ingestion Pipeline</text>
  <text x="550" y="48" text-anchor="middle" font-size="11" fill="#64748b">Seed action · 115 Reap help-centre articles · Convex vectorIndex</text>
  <rect x="20" y="154" width="165" height="84" rx="10" fill="#f8fafc" stroke="#e2e8f0" stroke-width="1.5"/>
  <text x="102" y="178" text-anchor="middle" font-size="12" font-weight="700" fill="#0f172a">JSONL Source</text>
  <text x="102" y="198" text-anchor="middle" font-size="11" fill="#64748b">115 articles</text>
  <text x="102" y="215" text-anchor="middle" font-size="11" fill="#64748b">scraped help-centre</text>
  <rect x="225" y="154" width="175" height="84" rx="10" fill="#eef2ff" stroke="#a5b4fc" stroke-width="1.5"/>
  <text x="312" y="178" text-anchor="middle" font-size="12" font-weight="700" fill="#3730a3">Stream + Batch</text>
  <text x="312" y="198" text-anchor="middle" font-size="11" fill="#4338ca">line-by-line stream</text>
  <text x="312" y="215" text-anchor="middle" font-size="11" fill="#4338ca">batches of 20</text>
  <rect x="445" y="154" width="185" height="84" rx="10" fill="#ede9fe" stroke="#7c3aed" stroke-width="1.5"/>
  <text x="537" y="178" text-anchor="middle" font-size="12" font-weight="700" fill="#5b21b6">Slice + Embed</text>
  <text x="537" y="198" text-anchor="middle" font-size="11" fill="#6d28d9">body.slice(0, 8000)</text>
  <text x="537" y="215" text-anchor="middle" font-size="11" fill="#6d28d9">text-embedding-3-small</text>
  <rect x="680" y="154" width="185" height="84" rx="10" fill="#eef2ff" stroke="#a5b4fc" stroke-width="1.5"/>
  <text x="772" y="178" text-anchor="middle" font-size="12" font-weight="700" fill="#3730a3">Insert Articles</text>
  <text x="772" y="198" text-anchor="middle" font-size="11" fill="#4338ca">body.slice(0, 2000)</text>
  <text x="772" y="215" text-anchor="middle" font-size="11" fill="#4338ca">embedding: float64[]</text>
  <rect x="915" y="154" width="165" height="84" rx="10" fill="#d1fae5" stroke="#10b981" stroke-width="1.5"/>
  <text x="997" y="178" text-anchor="middle" font-size="12" font-weight="700" fill="#065f46">kb_articles</text>
  <text x="997" y="198" text-anchor="middle" font-size="11" fill="#047857">Convex table</text>
  <text x="997" y="215" text-anchor="middle" font-size="11" fill="#047857">vectorIndex on embed</text>
  <line x1="187" y1="196" x2="223" y2="196" stroke="#94a3b8" stroke-width="1.5" marker-end="url(#arr)"/>
  <line x1="402" y1="196" x2="443" y2="196" stroke="#6366f1" stroke-width="1.5" marker-end="url(#arr-p)"/>
  <line x1="632" y1="196" x2="678" y2="196" stroke="#6366f1" stroke-width="1.5" marker-end="url(#arr-p)"/>
  <line x1="867" y1="196" x2="913" y2="196" stroke="#10b981" stroke-width="1.5" marker-end="url(#arr-g)"/>
  <path d="M400,138 L400,126 L225,126 L225,138" stroke="#6366f1" stroke-width="1.5" fill="none" stroke-dasharray="4,2"/>
  <text x="312" y="120" text-anchor="middle" font-size="10" fill="#6366f1">repeat for each batch</text>
  <line x1="102" y1="238" x2="102" y2="256" stroke="#e2e8f0" stroke-width="1" stroke-dasharray="3,2"/>
  <rect x="34" y="256" width="136" height="56" rx="6" fill="#f8fafc" stroke="#e2e8f0" stroke-width="1"/>
  <text x="102" y="271" text-anchor="middle" font-size="9" font-weight="700" fill="#94a3b8">SEED ACTION</text>
  <text x="102" y="286" text-anchor="middle" font-size="10" fill="#475569" font-family="ui-monospace,monospace">convex/kb.ts</text>
  <text x="102" y="300" text-anchor="middle" font-size="10" fill="#475569" font-family="ui-monospace,monospace">seedKBArticles</text>
  <line x1="312" y1="238" x2="312" y2="256" stroke="#e2e8f0" stroke-width="1" stroke-dasharray="3,2"/>
  <rect x="244" y="256" width="136" height="56" rx="6" fill="#f8fafc" stroke="#e2e8f0" stroke-width="1"/>
  <text x="312" y="271" text-anchor="middle" font-size="9" font-weight="700" fill="#94a3b8">BATCH SIZE</text>
  <text x="312" y="286" text-anchor="middle" font-size="10" fill="#475569" font-family="ui-monospace,monospace">20 articles</text>
  <text x="312" y="300" text-anchor="middle" font-size="10" fill="#475569" font-family="ui-monospace,monospace">per API call</text>
  <line x1="537" y1="238" x2="537" y2="256" stroke="#e2e8f0" stroke-width="1" stroke-dasharray="3,2"/>
  <rect x="469" y="256" width="136" height="56" rx="6" fill="#f8fafc" stroke="#e2e8f0" stroke-width="1"/>
  <text x="537" y="271" text-anchor="middle" font-size="9" font-weight="700" fill="#94a3b8">DIMENSIONS</text>
  <text x="537" y="286" text-anchor="middle" font-size="10" fill="#475569" font-family="ui-monospace,monospace">1,536-dim</text>
  <text x="537" y="300" text-anchor="middle" font-size="10" fill="#475569" font-family="ui-monospace,monospace">float64[] vector</text>
  <line x1="772" y1="238" x2="772" y2="256" stroke="#e2e8f0" stroke-width="1" stroke-dasharray="3,2"/>
  <rect x="704" y="256" width="136" height="56" rx="6" fill="#f8fafc" stroke="#e2e8f0" stroke-width="1"/>
  <text x="772" y="271" text-anchor="middle" font-size="9" font-weight="700" fill="#94a3b8">TRUNCATION</text>
  <text x="772" y="286" text-anchor="middle" font-size="10" fill="#475569" font-family="ui-monospace,monospace">8k chars for embed</text>
  <text x="772" y="300" text-anchor="middle" font-size="10" fill="#475569" font-family="ui-monospace,monospace">2k for storage</text>
  <line x1="997" y1="238" x2="997" y2="256" stroke="#e2e8f0" stroke-width="1" stroke-dasharray="3,2"/>
  <rect x="929" y="256" width="136" height="56" rx="6" fill="#f8fafc" stroke="#e2e8f0" stroke-width="1"/>
  <text x="997" y="271" text-anchor="middle" font-size="9" font-weight="700" fill="#94a3b8">INDEX TYPE</text>
  <text x="997" y="286" text-anchor="middle" font-size="10" fill="#475569" font-family="ui-monospace,monospace">.vectorIndex(</text>
  <text x="997" y="300" text-anchor="middle" font-size="10" fill="#475569" font-family="ui-monospace,monospace">by_embedding)</text>
  <rect x="905" y="388" width="185" height="80" rx="6" fill="#f0fdf4" stroke="#86efac" stroke-width="1"/>
  <text x="997" y="405" text-anchor="middle" font-size="9" font-weight="700" fill="#065f46">schema (convex/schema.ts)</text>
  <text x="915" y="420" font-size="9" fill="#047857" font-family="ui-monospace,monospace">.vectorIndex(</text>
  <text x="915" y="434" font-size="9" fill="#047857" font-family="ui-monospace,monospace">  "by_embedding",</text>
  <text x="915" y="448" font-size="9" fill="#047857" font-family="ui-monospace,monospace">  &#123; dimensions: 1536 &#125;)</text>
  <text x="915" y="462" font-size="9" fill="#047857" font-family="ui-monospace,monospace">  &#125;)</text>
</svg>