<svg xmlns="http://www.w3.org/2000/svg" viewBox="0 0 960 480" font-family="Inter, ui-sans-serif, system-ui, sans-serif">
  <defs>
    <marker id="arr" viewBox="0 0 10 10" refX="9" refY="5" markerWidth="8" markerHeight="6" orient="auto"><path d="M0,0 L10,5 L0,10 Z" fill="#94a3b8"/></marker>
    <marker id="arr-p" viewBox="0 0 10 10" refX="9" refY="5" markerWidth="8" markerHeight="6" orient="auto"><path d="M0,0 L10,5 L0,10 Z" fill="#6366f1"/></marker>
    <marker id="arr-g" viewBox="0 0 10 10" refX="9" refY="5" markerWidth="8" markerHeight="6" orient="auto"><path d="M0,0 L10,5 L0,10 Z" fill="#10b981"/></marker>
  </defs>
  <rect width="960" height="480" fill="#ffffff"/>
  <text x="480" y="30" text-anchor="middle" font-size="16" font-weight="700" fill="#0f172a">KB Ingestion Pipeline</text>
  <text x="480" y="47" text-anchor="middle" font-size="11" fill="#64748b">Seed action · 115 Reap help-centre articles · Convex vectorIndex</text>
  <rect x="40" y="142" width="130" height="76" rx="10" fill="#f8fafc" stroke="#e2e8f0" stroke-width="1.5"/>
  <text x="105" y="166" text-anchor="middle" font-size="11" font-weight="700" fill="#0f172a">JSONL Source</text>
  <text x="105" y="184" text-anchor="middle" font-size="10" fill="#64748b">115 articles</text>
  <text x="105" y="199" text-anchor="middle" font-size="10" fill="#64748b">scraped help-centre</text>
  <rect x="216" y="142" width="140" height="76" rx="10" fill="#eef2ff" stroke="#a5b4fc" stroke-width="1.5"/>
  <text x="286" y="166" text-anchor="middle" font-size="11" font-weight="700" fill="#3730a3">Stream + Batch</text>
  <text x="286" y="184" text-anchor="middle" font-size="10" fill="#4338ca">line-by-line stream</text>
  <text x="286" y="199" text-anchor="middle" font-size="10" fill="#4338ca">batches of 20</text>
  <rect x="404" y="142" width="150" height="76" rx="10" fill="#ede9fe" stroke="#7c3aed" stroke-width="1.5"/>
  <text x="479" y="166" text-anchor="middle" font-size="11" font-weight="700" fill="#5b21b6">Slice + Embed</text>
  <text x="479" y="184" text-anchor="middle" font-size="10" fill="#6d28d9">body.slice(0,8000)</text>
  <text x="479" y="199" text-anchor="middle" font-size="10" fill="#6d28d9">text-embedding-3-small</text>
  <rect x="604" y="142" width="150" height="76" rx="10" fill="#eef2ff" stroke="#a5b4fc" stroke-width="1.5"/>
  <text x="679" y="166" text-anchor="middle" font-size="11" font-weight="700" fill="#3730a3">Insert Articles</text>
  <text x="679" y="184" text-anchor="middle" font-size="10" fill="#4338ca">body.slice(0,2000)</text>
  <text x="679" y="199" text-anchor="middle" font-size="10" fill="#4338ca">embedding: float64[]</text>
  <rect x="804" y="142" width="136" height="76" rx="10" fill="#d1fae5" stroke="#10b981" stroke-width="1.5"/>
  <text x="872" y="166" text-anchor="middle" font-size="11" font-weight="700" fill="#065f46">kb_articles</text>
  <text x="872" y="184" text-anchor="middle" font-size="10" fill="#047857">Convex table</text>
  <text x="872" y="199" text-anchor="middle" font-size="10" fill="#047857">vectorIndex on embed</text>
  <line x1="172" y1="180" x2="214" y2="180" stroke="#94a3b8" stroke-width="1.5" marker-end="url(#arr)"/>
  <line x1="358" y1="180" x2="402" y2="180" stroke="#6366f1" stroke-width="1.5" marker-end="url(#arr-p)"/>
  <line x1="556" y1="180" x2="602" y2="180" stroke="#6366f1" stroke-width="1.5" marker-end="url(#arr-p)"/>
  <line x1="756" y1="180" x2="802" y2="180" stroke="#10b981" stroke-width="1.5" marker-end="url(#arr-g)"/>
  <line x1="105" y1="218" x2="105" y2="238" stroke="#e2e8f0" stroke-width="1" stroke-dasharray="3,2"/>
  <rect x="45" y="240" width="120" height="50" rx="6" fill="#f8fafc" stroke="#e2e8f0" stroke-width="1"/>
  <text x="105" y="254" text-anchor="middle" font-size="9" font-weight="700" fill="#94a3b8" text-transform="uppercase">seed action</text>
  <text x="105" y="268" text-anchor="middle" font-size="10" fill="#475569" font-family="ui-monospace,monospace">convex/kb.ts</text>
  <text x="105" y="281" text-anchor="middle" font-size="10" fill="#475569" font-family="ui-monospace,monospace">seedKBArticles</text>
  <line x1="286" y1="218" x2="286" y2="238" stroke="#e2e8f0" stroke-width="1" stroke-dasharray="3,2"/>
  <rect x="226" y="240" width="120" height="50" rx="6" fill="#f8fafc" stroke="#e2e8f0" stroke-width="1"/>
  <text x="286" y="254" text-anchor="middle" font-size="9" font-weight="700" fill="#94a3b8" text-transform="uppercase">batch size</text>
  <text x="286" y="268" text-anchor="middle" font-size="10" fill="#475569" font-family="ui-monospace,monospace">20 articles</text>
  <text x="286" y="281" text-anchor="middle" font-size="10" fill="#475569" font-family="ui-monospace,monospace">per API call</text>
  <line x1="479" y1="218" x2="479" y2="238" stroke="#e2e8f0" stroke-width="1" stroke-dasharray="3,2"/>
  <rect x="419" y="240" width="120" height="50" rx="6" fill="#f8fafc" stroke="#e2e8f0" stroke-width="1"/>
  <text x="479" y="254" text-anchor="middle" font-size="9" font-weight="700" fill="#94a3b8" text-transform="uppercase">dimensions</text>
  <text x="479" y="268" text-anchor="middle" font-size="10" fill="#475569" font-family="ui-monospace,monospace">1,536-dim</text>
  <text x="479" y="281" text-anchor="middle" font-size="10" fill="#475569" font-family="ui-monospace,monospace">float64[] vector</text>
  <line x1="679" y1="218" x2="679" y2="238" stroke="#e2e8f0" stroke-width="1" stroke-dasharray="3,2"/>
  <rect x="619" y="240" width="120" height="50" rx="6" fill="#f8fafc" stroke="#e2e8f0" stroke-width="1"/>
  <text x="679" y="254" text-anchor="middle" font-size="9" font-weight="700" fill="#94a3b8" text-transform="uppercase">truncation</text>
  <text x="679" y="268" text-anchor="middle" font-size="10" fill="#475569" font-family="ui-monospace,monospace">8,000 chars for embed</text>
  <text x="679" y="281" text-anchor="middle" font-size="10" fill="#475569" font-family="ui-monospace,monospace">2,000 for storage</text>
  <line x1="872" y1="218" x2="872" y2="238" stroke="#e2e8f0" stroke-width="1" stroke-dasharray="3,2"/>
  <rect x="812" y="240" width="120" height="50" rx="6" fill="#f8fafc" stroke="#e2e8f0" stroke-width="1"/>
  <text x="872" y="254" text-anchor="middle" font-size="9" font-weight="700" fill="#94a3b8" text-transform="uppercase">index type</text>
  <text x="872" y="268" text-anchor="middle" font-size="10" fill="#475569" font-family="ui-monospace,monospace">.vectorIndex(</text>
  <text x="872" y="281" text-anchor="middle" font-size="10" fill="#475569" font-family="ui-monospace,monospace">  by_embedding)</text>
  <path d="M356,122 L356,112 L216,112 L216,122" stroke="#6366f1" stroke-width="1.5" fill="none" stroke-dasharray="4,2"/>
  <text x="286" y="106" text-anchor="middle" font-size="9" fill="#6366f1">repeat for each batch</text>
  <rect x="750" y="370" width="190" height="70" rx="6" fill="#f0fdf4" stroke="#86efac" stroke-width="1"/>
  <text x="845" y="387" text-anchor="middle" font-size="9" font-weight="700" fill="#065f46">schema (convex/schema.ts)</text>
  <text x="760" y="403" font-size="9" fill="#047857" font-family="ui-monospace,monospace">.vectorIndex(</text>
  <text x="760" y="417" font-size="9" fill="#047857" font-family="ui-monospace,monospace">  "by_embedding",</text>
  <text x="760" y="431" font-size="9" fill="#047857" font-family="ui-monospace,monospace">  &#123; dimensions: 1536 &#125;)</text>
</svg>